<?xml version="1.0" encoding="UTF-8"?>
<svg width="190px" height="94px" viewBox="0 0 190 94" version="1.1" xmlns="http://www.w3.org/2000/svg" xmlns:xlink="http://www.w3.org/1999/xlink">
    <title>logo</title>
    <g id="logo" stroke="none" stroke-width="1" fill="none" fill-rule="evenodd">
        <g fill="#000000">
            <path d="M94.7234162,10.6675702 C93.1757876,9.35060557 92.9550229,9.16898643 94.060667,10.1186467 C92.9550229,9.16898643 91.5180043,7.96225825 89.7491559,6.49801039 L92.0710539,3.97522112 C93.838992,5.291734 95.5700601,6.6077951 97.2656237,7.92430798 L94.7234162,10.6675702 Z M93.6186825,17.4692523 C92.0710539,16.0063598 90.4123602,14.6893951 88.6444222,13.5192618 L91.0760198,10.8862361 C92.5494532,11.9117969 94.2431961,13.1546682 96.16089,14.6157535 L93.6186825,17.4692523 Z M78.4760472,6.93714921 C78.327657,5.40061513 78.1442175,4.19433874 77.9229976,3.31651288 C81.7538335,3.17058507 85.2177904,2.91577612 88.3125924,2.54892353 L88.9762519,6.05977515 C88.680837,6.05977515 88.2748121,6.09682184 87.7604531,6.16820449 C86.7276387,6.24274966 85.9174096,6.31684304 85.3284004,6.38822569 L85.3284004,9.46039028 L88.5342674,9.46039028 L88.5342674,13.1899077 L85.3284004,13.1899077 L85.3284004,16.0425029 L86.3229793,14.9455594 C87.501453,15.7510991 88.680837,16.6289249 89.860221,17.5785852 L88.5342674,19.0048828 L97.2656237,18.2368416 L97.2656237,2 L101.245305,2 L101.245305,17.9070357 L104.339652,17.5785852 L104.450262,21.4183392 L101.245305,21.7467897 L101.245305,28 L97.2656237,28 L97.2656237,22.075692 L88.4232023,22.844185 L88.0918277,19.5533545 L87.4286234,20.3209439 C87.0594684,19.9563502 86.3598493,19.3337851 85.3284004,18.4559593 L85.3284004,28 L81.4602393,28 L81.4602393,19.0048828 C80.7228398,20.7605345 79.8020008,22.4050461 78.6968119,23.9411284 L77.591623,19.4426662 C79.211626,17.3228727 80.3550504,15.2383187 81.0182548,13.1899077 L77.8128429,13.1899077 L77.8128429,9.46039028 L81.4602393,9.46039028 L81.4602393,6.71803159 C81.1652795,6.79122139 80.6486447,6.82646093 79.9126107,6.82646093 C79.3217807,6.90145789 78.8433814,6.93714921 78.4760472,6.93714921 L78.4760472,6.93714921 Z" id="Fill-1"></path>
            <path d="M127.684992,14.8377432 L120.309055,14.8377432 C121.410165,16.6376506 122.657696,18.1757953 124.051649,19.449861 C125.593383,18.0998147 126.804196,16.5635231 127.684992,14.8377432 L127.684992,14.8377432 Z M116.12629,8.42525481 L116.12629,4.71285905 L122.070649,4.71285905 L122.070649,1 L126.033102,1 L126.033102,4.71285905 L132.748101,4.71285905 L132.748101,8.42525481 L126.033102,8.42525481 L126.033102,11.2374653 L131.867304,11.2374653 L131.867304,14.949861 C130.692757,17.7250077 129.151929,19.976166 127.244367,21.6996294 C129.077585,22.7508494 131.096664,23.5384536 133.298429,24.0619788 C133.150194,24.3631216 132.930335,24.774529 132.637945,25.3003706 C132.049538,26.3497375 131.646992,27.1734788 131.426679,27.7748378 C128.490992,26.6499537 126.033102,25.4866159 124.051649,24.2871409 C121.85079,25.5612066 119.209306,26.7991352 116.12629,28 C115.318477,26.573973 114.621727,25.4120251 114.035587,24.5123031 C116.749149,23.6885617 119.024352,22.7508494 120.85893,21.6996294 C119.391086,20.1244209 117.997133,18.1757953 116.677525,15.8500463 L118.768227,14.8377432 L116.346602,14.8377432 L116.346602,11.2374653 L122.070649,11.2374653 L122.070649,8.42525481 L116.12629,8.42525481 Z M106.769806,9.32590343 L106.769806,5.61258108 L109.522353,5.61258108 L109.522353,1 L113.26404,1 L113.26404,5.61258108 L115.465352,5.61258108 L115.465352,9.32590343 L113.26404,9.32590343 L113.26404,13.1499537 L115.686118,12.700556 L115.686118,16.7502316 L113.26404,17.2000927 L113.26404,24.1745599 C113.26404,26.3497375 112.27354,27.4746216 110.292994,27.5492124 C109.41129,27.6242664 108.421697,27.6622568 107.320587,27.6622568 C107.246697,26.4618552 107.026384,25.2614537 106.660103,24.0619788 L108.421697,24.0619788 C109.154259,24.0619788 109.522353,23.6510347 109.522353,22.8249768 L109.522353,18.0998147 L106.660103,18.6622568 L106.439791,14.2748378 C107.392665,14.2011737 108.421697,14.0496757 109.522353,13.8249768 L109.522353,9.32590343 L106.769806,9.32590343 Z" id="Fill-3"></path>
            <path d="M157.599627,15 L154.159857,13.3615033 C154.232528,13.216639 154.343591,13.0339839 154.49259,12.8162375 C155.67544,10.9222038 156.489449,9.39303018 156.933246,8.22691722 L160.484994,9.53789452 C159.670528,11.2857143 158.710263,13.1064161 157.599627,15 L157.599627,15 Z M145.502385,14.8906769 C144.910046,13.8716777 144.096494,12.4153862 143.059901,10.5209025 C142.838231,10.1569421 142.689689,9.9032046 142.617018,9.7565407 L145.835118,8.11714424 C146.870797,9.72099945 147.869912,11.3945875 148.832006,13.1419574 L145.502385,14.8906769 Z M138.289196,9.21037514 C137.104061,7.31724114 135.883276,5.56897148 134.625927,3.96646595 L138.066612,2 C139.62013,3.89448367 140.913587,5.56897148 141.951551,7.02526301 L138.289196,9.21037514 Z M149.49793,28 L149.49793,19.6977436 L142.948837,19.6977436 C143.172793,20.7180925 143.505069,21.8468646 143.949323,23.0840601 C143.208443,23.5946844 142.0617,24.3945875 140.508639,25.4873685 C140.13797,25.7055648 139.879279,25.8868702 139.731651,26.0330842 C139.360982,26.3965947 138.917185,26.7987957 138.399346,27.2347384 C138.250347,27.4538344 138.102719,27.63424 137.956005,27.7809039 L135.514893,24.8318798 C136.18036,24.1044089 136.513093,23.1214009 136.513093,21.8824059 L136.513093,14.4538344 L134.293194,14.4538344 L134.293194,10.6302256 L140.508639,10.6302256 L140.508639,21.118044 L142.173221,19.6977436 L141.951551,19.6977436 L141.951551,15.9834579 L149.49793,15.9834579 L149.49793,7.02526301 L143.059901,7.02526301 L143.059901,3.3109773 L160.151804,3.3109773 L160.151804,7.02526301 L153.604082,7.02526301 L153.604082,15.9834579 L161.151832,15.9834579 L161.151832,19.6977436 L153.604082,19.6977436 L153.604082,28 L149.49793,28 Z" id="Fill-5"></path>
            <path d="M177.942143,27.2123958 C174.942802,27.2855966 173.482407,25.8238958 173.555991,22.8245135 L173.555991,12.4749305 L171.911861,13.5988881 C171.254118,12.2506949 170.596376,11.0127664 169.938634,9.88695563 C173.957317,7.63718727 176.880817,4.67533203 178.70823,1 L183.092577,1.22469886 C183.092577,1.30021621 183.055108,1.37573355 182.984232,1.45032431 C182.763932,2.05075672 182.544082,2.42510038 182.325587,2.57428189 C184.299266,5.35035519 186.856199,7.67610419 190,9.55013899 C189.780151,10 189.486717,10.6374961 189.122408,11.4621641 C188.684064,12.3618861 188.354064,13.0369093 188.135569,13.4876969 C184.699689,11.1633378 182.106641,8.61288994 180.352812,5.83727993 C178.743894,8.01384742 176.807685,10 174.54283,11.7999073 L177.501542,11.7999073 L177.501542,15.6248842 C180.059378,14.5 182.325587,13.225471 184.299266,11.7999073 L186.711288,15.0619788 C183.9327,16.7127046 180.862935,18.2508494 177.501542,19.6740966 L177.501542,21.8117471 C177.428409,23.1622568 178.050488,23.8006795 179.365973,23.7246989 L182.435286,23.7246989 C183.6027,23.8006795 184.260894,23.125193 184.408062,21.7000927 C184.480743,21.3248224 184.589539,20.5747452 184.737159,19.4493977 C184.809388,18.7743745 184.882972,18.2879131 184.955654,17.9872336 C186.198006,18.5130753 187.478278,18.9254092 188.792409,19.2251622 C188.719276,19.5258417 188.646143,19.9391022 188.573914,20.4630907 C188.280029,22.1124266 188.061534,23.3137548 187.91572,24.0619788 C187.478278,26.2362298 185.833697,27.2855966 182.984232,27.2123958 L177.942143,27.2123958 Z M167.527062,8.53737259 C167.233629,8.16302893 166.831851,7.56352311 166.321728,6.73700196 C165.298323,5.23777412 164.493412,4.03783589 163.909705,3.13718727 L167.198417,1.11211778 C168.22092,2.3129826 169.499838,4.03783589 171.03472,6.28760424 L167.527062,8.53737259 Z M166.870223,28 L164.348953,24.7374653 C165.078022,23.9878513 165.443685,23.0492124 165.443685,21.9247915 L165.443685,13.9375579 L163.141361,13.9375579 L163.141361,10 L169.28044,10 L169.28044,21.0250695 C170.084899,20.349583 170.925924,19.6008957 171.80171,18.7743745 C172.093338,20.1248842 172.460355,21.4374035 172.8987,22.7119325 C172.605718,22.9370946 172.130356,23.3503552 171.473065,23.949861 C170.22981,24.9241738 169.317909,25.6376506 168.7333,26.0870483 C168.512999,26.3126737 168.257034,26.573973 167.965407,26.8746525 C167.380346,27.3981777 167.015134,27.7743745 166.870223,28 L166.870223,28 Z" id="Fill-7"></path>
            <path d="M41.6303227,28.7732359 L47.053982,28.7732359 L47.053982,0 L41.6303227,0 L41.6303227,28.7732359 Z M0,32.3110299 L0,37.2212834 L8.58360906,37.2212834 L8.58360906,61.0842658 L14.0489539,61.0842658 L14.0489539,37.2212834 L22.632563,37.2212834 L22.632563,32.3110299 L0,32.3110299 Z M48.4989318,0 L48.4989318,4.90934003 L57.7445263,4.90934003 L57.7445263,28.7732359 L63.1763414,28.7732359 L63.1763414,4.90934003 L72.4237484,4.90934003 L72.4237484,0 L48.4989318,0 Z M21.1744731,48.5288879 L30.2773398,48.5288879 C30.1183002,45.9132222 28.4005815,44.1023065 25.9266317,44.1023065 C23.0507783,44.1023065 21.6538575,45.8332953 21.1744731,48.5288879 L21.1744731,48.5288879 Z M15.7449235,50.7426353 C15.7449235,44.6257136 19.8572987,39.8771409 25.845526,39.8771409 C32.4332103,39.8771409 35.9461285,44.947705 35.9461285,52.3119434 L21.0947268,52.3119434 C21.4948179,55.4907513 23.2510504,57.4628911 26.3253635,57.4628911 C28.4404547,57.4628911 29.6783358,56.4969171 30.2773398,54.927609 L35.627143,54.927609 C34.8686463,58.5900891 31.6352936,61.6880566 26.3652367,61.6880566 C19.5786396,61.6880566 15.7449235,56.8988354 15.7449235,50.7426353 L15.7449235,50.7426353 Z M36.9624416,50.7828271 C36.9624416,56.9390272 40.9941642,61.6880566 47.462229,61.6880566 C52.9311987,61.6880566 56.3249503,58.1868006 56.6842621,53.7999543 L51.4540784,53.7999543 C51.0947667,56.134734 49.537447,57.3021238 47.3417032,57.3021238 C44.0286041,57.3021238 42.4712844,54.6855446 42.4712844,50.7828271 C42.4712844,46.7988125 44.1477706,44.2635305 47.4214496,44.2635305 C49.4182805,44.2635305 50.8152013,45.6314227 51.1740599,47.4427952 L56.4844431,47.4427952 C55.7658195,42.9760219 52.4925936,39.8771409 47.1826636,39.8771409 C40.954291,39.8771409 36.9624416,44.6257136 36.9624416,50.7828271 L36.9624416,50.7828271 Z M63.1731697,32.3110299 L57.7422608,32.3110299 L57.7422608,61.0842658 L63.1731697,61.0842658 L63.1731697,49.3747431 C63.1731697,46.5572048 64.9289491,44.6257136 67.3236057,44.6257136 C69.6004551,44.6257136 70.8777563,46.1954784 70.8777563,48.4083124 L70.8777563,61.0842658 L76.3073059,61.0842658 L76.3073059,47.6035625 C76.3073059,43.0961407 73.472685,39.8771409 69.2411433,39.8771409 C66.4450363,39.8771409 64.7699095,40.9641471 63.2923361,43.1363325 L63.1731697,43.1363325 L63.1731697,32.3110299 Z M83.267442,40.4407399 L77.9588713,40.4407399 L77.9588713,61.0842658 L83.3884209,61.0842658 L83.3884209,49.3747431 C83.3884209,46.5572048 85.1442003,44.6257136 87.5402162,44.6257136 C89.8157063,44.6257136 91.0930075,46.1954784 91.0930075,48.4083124 L91.0930075,61.0842658 L96.5225571,61.0842658 L96.5225571,47.6035625 C96.5225571,43.0961407 93.6874831,39.8771409 89.4563945,39.8771409 C86.6616468,39.8771409 84.7848885,41.0431605 83.3884209,43.2578214 L83.267442,43.2578214 L83.267442,40.4407399 Z M113.415194,50.7828271 C113.415194,46.7586207 111.538436,44.0219228 108.22579,44.0219228 C104.871911,44.0219228 103.035026,46.7586207 103.035026,50.7828271 C103.035026,54.8070336 104.871911,57.5026262 108.22579,57.5026262 C111.538436,57.5026262 113.415194,54.8070336 113.415194,50.7828271 L113.415194,50.7828271 Z M97.5261832,50.7828271 C97.5261832,44.6257136 101.876891,39.8771409 108.22579,39.8771409 C114.573329,39.8771409 118.924037,44.6257136 118.924037,50.7828271 C118.924037,56.9390272 114.573329,61.6880566 108.22579,61.6880566 C101.876891,61.6880566 97.5261832,56.9390272 97.5261832,50.7828271 L97.5261832,50.7828271 Z M120.042751,61.0842658 L125.473207,61.0842658 L125.473207,32.3110299 L120.042751,32.3110299 L120.042751,61.0842658 Z M142.48048,50.7828271 C142.48048,46.7586207 140.604627,44.0219228 137.289716,44.0219228 C133.937197,44.0219228 132.100312,46.7586207 132.100312,50.7828271 C132.100312,54.8070336 133.937197,57.5026262 137.289716,57.5026262 C140.604627,57.5026262 142.48048,54.8070336 142.48048,50.7828271 L142.48048,50.7828271 Z M126.59011,50.7828271 C126.59011,44.6257136 130.94263,39.8771409 137.289716,39.8771409 C143.637708,39.8771409 147.989776,44.6257136 147.989776,50.7828271 C147.989776,56.9390272 143.637708,61.6880566 137.289716,61.6880566 C130.94263,61.6880566 126.59011,56.9390272 126.59011,50.7828271 L126.59011,50.7828271 Z M163.559801,49.8565883 C163.559801,46.8390043 161.961702,44.2635305 158.688476,44.2635305 C155.933148,44.2635305 154.097622,46.4357159 154.097622,49.8967801 C154.097622,53.3980361 155.933148,55.449646 158.728349,55.449646 C162.161521,55.449646 163.559801,52.9157342 163.559801,49.8565883 L163.559801,49.8565883 Z M149.226297,61.6880566 L154.615974,61.6880566 C155.054579,62.9755652 156.212713,63.9826444 158.728349,63.9826444 C161.802662,63.9826444 163.280235,62.4932633 163.280235,59.6761818 L163.280235,57.4226992 L163.15971,57.4226992 C161.961702,58.7905915 160.404382,59.8364923 157.809906,59.8364923 C153.258926,59.8364923 148.787692,56.2151176 148.787692,49.9780772 C148.787692,43.8200502 152.460103,39.8771409 157.649507,39.8771409 C160.205922,39.8771409 162.082227,40.88285 163.320109,42.6138388 L163.399402,42.6138388 L163.399402,40.4407399 L168.628679,40.4407399 L168.628679,59.5158712 C168.628679,62.4128797 167.710237,64.3850194 166.19415,65.7926467 C164.47779,67.4021466 161.842535,68.1265129 158.807642,68.1265129 C153.219506,68.1265129 149.785881,65.7127198 149.226297,61.6880566 L149.226297,61.6880566 Z M171.438833,67.8456269 L174.632312,67.8456269 C178.784107,67.8456269 180.301554,66.1963919 181.858874,61.607673 L189.005236,40.4407399 L183.534907,40.4407399 L180.660413,49.7364695 C180.021988,51.6277689 179.462858,54.2434346 179.462858,54.2434346 L179.383111,54.2434346 C179.383111,54.2434346 178.704814,51.6277689 178.065937,49.7364695 L175.031044,40.4407399 L169.323288,40.4407399 L174.832131,55.1290249 C175.98936,58.2667276 176.388998,59.5948847 176.388998,60.7220827 C176.388998,62.4128797 175.510881,63.5391642 173.354558,63.5391642 L171.438833,63.5391642 L171.438833,67.8456269 Z M14.2415233,77.5414478 L21.1971283,77.5414478 C24.2306621,77.5414478 25.7843569,76.1333638 25.7843569,73.5971683 C25.7843569,70.9815026 24.1509157,69.6939941 21.2764216,69.6939941 L14.2415233,69.6939941 L14.2415233,77.5414478 Z M19.919374,82.2904773 L14.2415233,82.2904773 L14.2415233,93.3962092 L8.57545319,93.3962092 L8.57545319,64.6229733 L21.4336488,64.6229733 C25.0693582,64.6229733 27.2220571,65.5889472 28.8985432,67.3199361 C30.495283,68.9696278 31.4535987,70.9815026 31.4535987,73.5569765 C31.4535987,77.5816396 29.3996766,80.3334095 25.8061059,81.5409911 L32.931172,93.3962092 L26.5469316,93.3962092 L19.919374,82.2904773 Z M36.5546476,80.8408312 L45.6575143,80.8408312 C45.4971154,78.2256223 43.780756,76.4142498 41.3054469,76.4142498 C38.4309528,76.4142498 37.0331258,78.1443252 36.5546476,80.8408312 L36.5546476,80.8408312 Z M31.125098,83.0545787 C31.125098,76.937657 35.2370201,72.1890843 41.2247943,72.1890843 C47.8120256,72.1890843 51.3253968,77.2596483 51.3253968,84.6238867 L36.4749013,84.6238867 C36.8736331,87.8031514 38.6298656,89.7748344 41.7041787,89.7748344 C43.8206292,89.7748344 45.057151,88.8088605 45.6575143,87.2395524 L51.0059582,87.2395524 C50.2479146,90.9006623 47.0145619,94 41.7440519,94 C34.9574548,94 31.125098,89.2121489 31.125098,83.0545787 L31.125098,83.0545787 Z M57.3027496,93.3962092 L62.4921538,93.3962092 L70.0947919,72.7513131 L64.6643361,72.7513131 L59.9769715,86.7558803 L59.8972251,86.7558803 L55.2488275,72.7513131 L49.7399846,72.7513131 L57.3027496,93.3962092 Z M70.8777563,93.3962092 L76.3073059,93.3962092 L76.3073059,72.7513131 L70.8777563,72.7513131 L70.8777563,93.3962092 Z M70.8777563,71.3354647 L76.3073059,71.3354647 L76.3073059,66.4265814 L70.8777563,66.4265814 L70.8777563,71.3354647 Z M82.9335041,80.8408312 L92.0363708,80.8408312 C91.8759718,78.2256223 90.1596125,76.4142498 87.6843033,76.4142498 C84.8098093,76.4142498 83.4133416,78.1443252 82.9335041,80.8408312 L82.9335041,80.8408312 Z M77.5039545,83.0545787 C77.5039545,76.937657 81.6163297,72.1890843 87.6050101,72.1890843 C94.1922413,72.1890843 97.7056125,77.2596483 97.7056125,84.6238867 L82.8537577,84.6238867 C83.2538489,87.8031514 85.0100814,89.7748344 88.0843945,89.7748344 C90.1994857,89.7748344 91.4373668,88.8088605 92.0363708,87.2395524 L97.386174,87.2395524 C96.6267711,90.9006623 93.3934183,94 88.1242677,94 C81.3367643,94 77.5039545,89.2121489 77.5039545,83.0545787 L77.5039545,83.0545787 Z M102.320027,93.3962092 L107.231226,93.3962092 L110.984289,79.8693766 L111.064035,79.8693766 L114.697026,93.3962092 L119.647191,93.3962092 L125.755038,72.7513131 L120.485888,72.7513131 L116.972969,85.9333181 L116.891864,85.9333181 L113.259326,72.7513131 L108.629506,72.7513131 L105.195428,85.9333181 L105.114775,85.9333181 L101.72193,72.7513131 L96.331347,72.7513131 L102.320027,93.3962092 Z M31.2787004,0 L24.4930095,21.0915734 L17.4395339,0 L8.57545319,0 L8.57545319,28.7732359 L13.8423383,28.7732359 L13.8423383,5.99040877 L21.5383159,28.7732359 L27.0879382,28.7732359 L34.4096516,5.99040877 L34.4096516,28.7732359 L39.799328,28.7732359 L39.799328,0 L31.2787004,0 Z" id="Fill-9"></path>
        </g>
    </g>
</svg>